<?xml version='1.0' encoding='utf-8'?>
<svg xmlns="http://www.w3.org/2000/svg" viewBox="0 0 64 64"> <defs> <linearGradient id="d" x2="0" y1="9.4224" y2="52.781" gradientUnits="userSpaceOnUse"> <stop stop-color="#3ec549" stop-opacity=".50836" offset="0"/> <stop stop-color="#4fe756" stop-opacity=".11706" offset="1"/> </linearGradient> <linearGradient id="c" x1="28.414" x2="20.353" y1="16.25" y2="62.974" gradientTransform="matrix(-1 0 0 1 56.384 -6.6406)" gradientUnits="userSpaceOnUse"> <stop stop-color="#56d760" stop-opacity=".58863" offset="0"/> <stop stop-color="#18b01f" stop-opacity=".39216" offset="1"/> </linearGradient> <linearGradient id="b" x1="32.382" x2="16.504" y1="15.406" y2="62.81" gradientTransform="matrix(-1 0 0 1 56.565 -6.6269)" gradientUnits="userSpaceOnUse"> <stop stop-color="#179907" offset="0"/> <stop stop-color="#0f7402" offset="1"/> </linearGradient> <linearGradient id="a" x1="11.969" x2="32" y1="12.458" y2="63.254" gradientTransform="matrix(-1 0 0 1 56.565 -6.6269)" gradientUnits="userSpaceOnUse"> <stop stop-color="#1b611f" offset="0"/> <stop stop-color="#103f14" offset="1"/> </linearGradient> </defs> <path d="m45.40902,24.52932v14.0625c1,.0488 5,0 5,0 .44725.00913.83036.11732 1,.53125s.09345.86712-.21875,1.1875l-16,16c-.43543.4218-1.12707.4218-1.5625,0l-16-16c-.3122-.32038-.41964-.77357-.25-1.1875s.584-.52212 1.03125-.53125h5v-7.9375c.15625-2.28125-.84375-3.28125-3.84375-3.28125h-6.0625c0,0-1,0-1-1 0-6 .0625-12 .0625-18 0-1 1-1 1-1h12.5c14.5,0 19.5,8 19.34375,17.15625z" fill="url(#a)"/> <path d="m26.128 8.7793c7.0029 0 11.445 1.9162 14.188 4.75s3.8863 6.7042 3.8125 11.031c-1.2e-4 0.01042-1.2e-4 0.02083 0 0.03125v14.062c-8.3e-4 0.71842 0.56361 1.3104 1.2812 1.3438 1.031 0.05031 3.4386 0.01155 4.3125 0l-15.25 15.25-15.281-15.25h4.2812c0.74216 6e-5 1.3438-0.60159 1.3438-1.3438v-7.8438c0.00218-0.03183-0.00176-0.06191 0-0.09375 0.0728-1.3174-0.21119-2.6371-1.1875-3.5-0.99991-0.88379-2.3507-1.125-4-1.125h-5.7188c0.00225-5.7622 0.06025-11.533 0.0625-17.312h12.156z" fill="url(#b)"/> <path d="m25.946 9.6094c6.849 0 11.036 1.8569 13.594 4.5s3.6337 6.2678 3.5625 10.438c-2e-4 0.01695-2e-4 0.0143 0 0.03125v14.062c-0.00134 1.161 0.93398 2.1336 2.0938 2.1875 0.59411 0.02899 1.4212 0.00656 2.3125 0l-13.219 13.219-13.25-13.219h2.25c1.1983 9e-5 2.1876-0.98916 2.1875-2.1875v-7.7812c0.0047-0.06858 5.4e-4 -0.04509 0-0.0625s0.00184-0.09586 0-0.0625c0.08119-1.4692-0.23337-3.0643-1.4688-4.1562-1.2254-1.0831-2.8309-1.3438-4.5625-1.3438h-4.875c0.0067-5.1969 0.0558-10.405 0.0625-15.625h11.312z" fill="url(#c)"/> <path d="m24.21 9.6346c6.4403-0.26571 11.681 0.59302 15.247 4.3528 2.5434 2.6819 3.6429 5.5038 3.5715 10.622-2.1e-4 0.01532-1.8e-4 0.01593 0 0.03125v14.062c-0.00131 1.1294 0.90288 2.0725 2.0312 2.125 0.62345 0.03043 1.5443 0.01152 2.4375 0l-13.214 13.214-9.7932-9.7932c7.8823-1.932 13.39-9.0803 13.39-17.952 0-7.1524-2.1048-12.298-13.669-16.662z" fill="url(#d)"/> </svg>